PathFileType	4	(X/Y/Z)	Patient4_TMGait_0pt4_03_right_34.trc.trc
DataRate	CameraRate	NumFrames	NumMarkers	Units	OrigDataRate	OrigDataStartFrame	OrigNumFrames
71.794871794872	71.794871794872	4	33	mm	71.794871794872	18	       141
Frame#	Time	Sacral			L.Shoulder			Chest			R.Shoulder			Neck			R.ASIS			L.ASIS			R.Thigh.Superior			R.Thigh.Lateral			R.Thigh.Inferior			R.Patella			L.Thigh.Superior			L.Thigh.Lateral			L.Thigh.Inferior			L.Patella			L.Shank.Superior			L.Shank.Lateral			L.Shank.Inferior			R.Shank.Superior			R.Shank.Lateral			R.Shank.Inferior			R.Heel			R.Midfoot.Superior			R.Midfoot.Lateral			R.Toe			L.Heel			L.Midfoot.Lateral			L.Midfoot.Superior			L.Toe			L.Elbow			L.Wrist			R.Elbow			R.Wrist			
		X1	Y1	Z1	X2	Y2	Z2	X3	Y3	Z3	X4	Y4	Z4	X5	Y5	Z5	X6	Y6	Z6	X7	Y7	Z7	X8	Y8	Z8	X9	Y9	Z9	X10	Y10	Z10	X11	Y11	Z11	X12	Y12	Z12	X13	Y13	Z13	X14	Y14	Z14	X15	Y15	Z15	X16	Y16	Z16	X17	Y17	Z17	X18	Y18	Z18	X19	Y19	Z19	X20	Y20	Z20	X21	Y21	Z21	X22	Y22	Z22	X23	Y23	Z23	X24	Y24	Z24	X25	Y25	Z25	X26	Y26	Z26	X27	Y27	Z27	X28	Y28	Z28	X29	Y29	Z29	X30	Y30	Z30	X31	Y31	Z31	X32	Y32	Z32	X33	Y33	Z33	

18	44.486785714286	854.725271896344	1008.728959497809	394.638333576000	1054.727727990300	1430.673922485895	213.269507158152	1137.044336608066	1369.558418205808	388.242397710531	1032.505358408546	1448.125561779989	548.290798836582	1014.922299624900	1498.228932896987	365.072569205804	1072.326743399432	949.979745201813	536.321423649936	1083.657539254521	962.620793764339	260.479195093117	1134.501165401965	762.548067677586	520.007188620644	1078.565908541437	648.876022941103	595.836516459766	1166.275997584058	600.476248495851	519.771167373495	1192.656073334163	519.548709224985	539.915203532278	1096.479999436632	738.824657944799	292.513860415272	988.341788337061	636.665714523310	225.582220418227	1053.811731367730	548.678451853048	291.441990138850	1042.297498437256	483.390566349544	300.421692864044	1013.410927586497	414.865811519755	292.458992240851	917.287902361851	303.751540211801	243.752813332322	965.032462920153	191.337403957059	316.951973407357	1175.683079084270	435.842412740189	553.370223131215	1120.261791847930	325.420677102309	620.588526580010	1190.984598275751	236.846118928261	574.255015462608	1099.637995838898	49.784655664606	551.272578723759	1263.587832222108	121.596288154206	591.713934254490	1183.846486644177	47.187893720698	625.303599391376	1387.514058774756	82.873312035486	617.922131660910	834.918286236552	38.918144837660	369.507819858236	903.571351476038	34.836152226710	284.334589018274	988.970892833944	95.318013084720	307.051329015633	1115.623773783347	42.344691163922	270.741319296942	1115.984564727740	1110.316595292097	49.136507957666	1360.837317472968	1021.354257676930	22.242064503165	900.112766395179	1131.583957107607	665.590025872799	904.417144832855	868.734913638122	671.378074526994	
19	44.500714285714	855.446972030911	1007.506485711345	395.739252821686	1054.519708635843	1429.829660684292	215.005950479326	1136.642751604589	1369.006693469290	390.166910324230	1031.478342299983	1447.270835746127	549.983014299641	1014.327915496576	1497.337148283690	366.686098158164	1072.774423651623	948.736083238992	537.955903710236	1084.910529765542	962.128911954049	262.085432316575	1133.943941878405	760.183067206413	521.862773283349	1076.162090425607	646.271411423703	596.185026272047	1164.197406278377	598.014415138888	520.465236347868	1189.902800214176	517.645780155384	539.708799236172	1095.502312165309	737.699666838118	293.572928106523	985.896834142343	636.675146008467	226.304371779505	1050.055385572013	547.929390583059	292.121813540502	1038.057730294427	482.877067400764	300.819936960237	1008.704650573374	414.732243659760	292.825405854888	912.178665454428	304.020139168737	243.994944168084	959.683980376744	191.319558419161	317.015028967654	1173.597545444414	433.708571659658	552.854613726562	1118.417828806514	322.600336797231	619.047426142164	1190.098964432213	234.757641570203	572.689377214581	1100.376072590999	47.390343914188	547.986490709993	1263.432756341992	119.789615032657	589.932047910563	1183.742990865839	45.450007161495	622.958813037349	1387.264721275010	81.871009394736	617.555211832876	829.287936719675	38.928018336786	369.494005937487	897.935783257498	34.810186513599	284.329818538150	983.350703196724	95.286844513329	307.036992141788	1109.984257232974	42.312057263368	270.748459126394	1116.474841036893	1109.154386995955	51.606227057974	1361.820131636975	1021.809392486314	25.086938072713	900.375354683735	1130.196763698405	667.276856738118	907.117550679409	867.388632272780	673.019373745188	
20	44.514642857143	856.292082652743	1006.159976785010	397.112480675022	1054.182661205301	1428.930190005643	216.962436516829	1136.228037398167	1368.443325659809	392.278569174051	1030.447090179611	1446.318543238809	551.913318799522	1013.659473533368	1496.363326903461	368.545452166728	1073.485445953974	947.384068010953	539.690699828885	1086.229366871743	961.604647508364	263.820771891564	1134.298983548517	758.123081380283	523.543526706461	1074.840742561496	643.728024244684	596.195416869861	1163.314021773066	595.869638635149	520.906488910532	1188.281098542525	515.633437376497	539.265034114851	1094.627331919367	736.536443825529	294.662884515305	983.595852638608	636.651065961735	227.131892521419	1046.529397593909	547.144086223817	292.853462217899	1034.134993602419	482.279132005830	301.267037923478	1004.203305308362	414.546172923668	293.256646861389	907.205392455490	304.317268725330	244.291564028135	954.398362873541	191.277219136229	317.090623468497	1171.856937134810	431.197546924717	551.973379586101	1115.931217610886	319.993559449508	617.164148046800	1187.479217361672	232.244981238617	570.668295289636	1097.428496205741	45.789271115769	544.428655429362	1260.159576031097	117.238754025257	587.677881093212	1179.918147018630	43.856322961350	620.324560118176	1383.521681629098	79.045455513558	616.704476937692	823.658188530515	38.941298191048	369.472388244288	892.301523026103	34.786928214681	284.320935852015	977.726920206811	95.253445829444	307.024668519081	1104.343858313758	42.269886896587	270.752763098007	1116.584355453668	1107.768890887111	54.405557317328	1362.153845725695	1021.185662795819	28.068078031253	901.292637007576	1128.406230388714	669.305720895690	911.260467473976	865.710975280328	674.942854560406	
21	44.528571428571	857.260871530560	1004.717651400562	398.759181936077	1053.752125572022	1427.983798608900	219.145004574727	1135.828370997371	1367.868996371342	394.583812775513	1029.450722837921	1445.283249565129	554.087932031429	1012.952598069220	1495.323873818961	370.655170240163	1074.459744175552	945.944369112331	541.519339863080	1087.586694691376	961.058906984029	265.677027104567	1135.492220569274	756.324407957944	525.033851674777	1074.524738545654	641.271447048156	595.919440453102	1163.512712245964	594.011289820285	521.101414769462	1187.684675602691	513.522391030694	538.547701024053	1093.872487495612	735.350310018257	295.770821918050	981.479113211833	636.587291192171	228.066938268076	1043.295781431733	546.322125278775	293.639703510251	1030.592603316002	481.581972211684	301.775675166249	999.974105870665	414.286010907316	293.762896732733	902.416610712154	304.638130134123	244.654691151770	949.198373636826	191.198071552872	317.186258572858	1170.504476124696	428.379611706437	550.766527205563	1113.098956057110	317.568707230613	615.106719006328	1183.545771496871	229.353862160822	568.311626422750	1091.502592652730	44.741855441667	540.904925347725	1254.419603955301	114.121158028037	585.073672684869	1173.195345653399	42.368753615099	617.618993445486	1377.100761557630	74.839014400621	615.375562116491	818.032036554883	38.963070526206	369.439563736101	886.672263172386	34.769808617725	284.308762114911	972.104114576415	95.219953548074	307.016519457220	1098.705638270004	42.211312142920	270.754036633186	1116.299731857397	1106.174324526807	57.520653869556	1361.836436661197	1019.492966538400	31.167473606607	902.823139425181	1126.275469903691	671.668332910685	916.776865509415	863.792897389165	677.144708211439	
